# xmcd
#
# Track frame offsets: 
#        150
#        15000
#        29514
#        51982
#        68316
#        83790
#        98326
#        109052
#        124087
#        141365
#
# Disc length: 2118 seconds
#
# Revision: 0
# Processed by: cddbd v1.5.2PL0 Copyright (c) Steve Scherf et al.
# Submitted via: ExactAudioCopyFreeDBPlugin 1.0
#
DISCID=7208440a
DTITLE=Eddie Rabbitt - The Very Best of
DYEAR=2005
DGENRE=Country
TTITLE0=Drivin' My Life Away
TTITLE1=I Love A Rainy Night
TTITLE2=Suspicious
TTITLE3=On Second Thought
TTITLE4=Love May Never Pass This Way Again
TTITLE5=American Boy
TTITLE6=Two Dollars In The Jukebox
TTITLE7=It's Me I'm Running From
TTITLE8=You've Come To The Right Heart
TTITLE9=Great Old American Town
EXTD=
EXTT0=
EXTT1=
EXTT2=
EXTT3=
EXTT4=
EXTT5=
EXTT6=
EXTT7=
EXTT8=
EXTT9=
PLAYORDER=
